<svg width="56" height="23" viewBox="0 0 56 23" fill="none" xmlns="http://www.w3.org/2000/svg">
<path d="M10.2325 2.95927C9.57632 3.73849 8.52641 4.35135 7.47649 4.2638C7.34525 3.21317 7.86146 2.0925 8.46516 1.40959C9.12136 0.612867 10.2675 0.0437762 11.2037 0C11.3087 1.08565 10.88 2.16254 10.2325 2.95927ZM11.1862 4.46517C9.66381 4.37762 8.36017 5.33194 7.64273 5.33194C6.90779 5.33194 5.80538 4.50895 4.59798 4.53521C3.03186 4.56148 1.57948 5.44576 0.783291 6.85535C-0.861574 9.68329 0.354576 13.8595 1.94695 16.1622C2.72563 17.3003 3.65306 18.5523 4.87795 18.5086C6.04161 18.4648 6.49657 17.7556 7.89646 17.7556C9.30509 17.7556 9.71631 18.5086 10.9412 18.4911C12.2099 18.4648 13.006 17.3529 13.7847 16.2147C14.6684 14.9189 15.0359 13.6669 15.0534 13.5969C15.0271 13.5706 12.6036 12.6426 12.5773 9.84088C12.5511 7.49448 14.4934 6.38257 14.5809 6.31252C13.4872 4.68405 11.7811 4.50895 11.1862 4.46517ZM19.9705 1.29577V18.3597H22.6215V12.5287H26.2874C29.6384 12.5287 31.9832 10.2261 31.9832 6.89912C31.9832 3.57214 29.6734 1.29577 26.3749 1.29577H19.9705ZM22.6215 3.52836H25.675C27.9761 3.52836 29.2885 4.75409 29.2885 6.90788C29.2885 9.06167 27.9761 10.3049 25.6662 10.3049H22.6215V3.52836ZM36.8128 18.4911C38.4752 18.4911 40.0151 17.6506 40.715 16.311H40.7675V18.3597H43.2173V9.86715C43.2173 7.40693 41.2487 5.81348 38.2215 5.81348C35.4129 5.81348 33.3306 7.42444 33.2519 9.63076H35.6404C35.8417 8.58013 36.8128 7.88847 38.1427 7.88847C39.7613 7.88847 40.6713 8.64142 40.6713 10.0335V10.9791L37.364 11.1804C34.293 11.3643 32.6307 12.625 32.6307 14.8139C32.6394 17.0202 34.3543 18.4911 36.8128 18.4911ZM37.5303 16.4686C36.1216 16.4686 35.2205 15.7857 35.2205 14.7526C35.2205 13.6757 36.0866 13.0541 37.7403 12.9577L40.68 12.7739V13.737C40.68 15.3304 39.3239 16.4686 37.5303 16.4686ZM46.4983 23C49.0793 23 50.2955 22.0107 51.3541 19.0251L56 5.97983H53.3052L50.1905 16.0571H50.138L47.0232 5.97983H44.2585L48.7381 18.4035L48.4931 19.1565C48.0907 20.4347 47.4345 20.9338 46.2621 20.9338C46.0521 20.9338 45.6496 20.9075 45.4834 20.89V22.9387C45.6409 22.9737 46.2971 23 46.4983 23Z" fill="#181818"/>
</svg>
