<svg width="102" height="39" viewBox="0 0 102 39" fill="none" xmlns="http://www.w3.org/2000/svg">
<path d="M0.0914307 17.6565C0.0914307 16.3569 0.709355 15.795 1.76411 15.795C2.81886 15.795 3.43765 16.3394 3.43765 17.6565C3.43765 18.956 2.78283 19.5004 1.76411 19.5004C0.709355 19.5004 0.0914307 18.956 0.0914307 17.6565ZM0.818329 17.6565C0.818329 18.4643 1.0917 18.8331 1.76411 18.8331C2.43739 18.8331 2.70986 18.4818 2.70986 17.6565C2.70986 16.9013 2.43739 16.4623 1.76411 16.4623C1.0917 16.4623 0.818329 16.9013 0.818329 17.6565ZM0.928199 15.1102C0.872825 15.1102 0.836784 15.0926 0.836784 15.0223V14.4077C0.836784 14.355 0.855245 14.3199 0.928199 14.3199H1.52766C1.58215 14.3199 1.61907 14.3374 1.61907 14.4077V15.0223C1.61907 15.075 1.60061 15.1102 1.52766 15.1102H0.928199ZM2.00053 15.1102C1.94604 15.1102 1.91 15.0926 1.91 15.0223V14.4077C1.91 14.355 1.92758 14.3199 2.00053 14.3199H2.60088C2.65537 14.3199 2.69141 14.3374 2.69141 14.4077V15.0223C2.69141 15.075 2.67383 15.1102 2.60088 15.1102H2.00053Z" fill="#CDCDCD"/>
<path d="M4.0195 21.116C3.96501 21.116 3.92809 21.0984 3.92809 21.0282V20.5365C3.92809 20.4838 3.94655 20.4487 4.0195 20.4487H4.21904C4.69192 20.4487 4.92834 20.2028 4.92834 19.7287V16.0409C4.92834 15.9882 4.94681 15.9531 5.01976 15.9531H5.58319C5.63769 15.9531 5.67458 15.9707 5.67458 16.0409V18.1834C5.67458 18.5696 5.96552 18.7628 6.47444 18.7628H6.56497C6.80141 18.7628 6.91041 18.8507 6.91041 19.0789C6.91041 19.3775 6.80141 19.4301 6.56497 19.4301H6.38303C6.09209 19.4301 5.83807 19.3424 5.67458 19.1667V19.7287C5.67458 20.6418 5.18326 21.1335 4.25595 21.1335H4.0195V21.116Z" fill="#CDCDCD"/>
<path d="M6.56511 19.4304C6.32856 19.4304 6.27405 19.3426 6.27405 19.1142C6.27405 18.8331 6.32856 18.7803 6.56511 18.7803H7.52978C7.76633 18.7803 7.87537 18.8507 7.87537 19.0966C7.87537 19.3777 7.76633 19.448 7.52978 19.448H6.56511V19.4304Z" fill="#CDCDCD"/>
<path d="M7.54781 19.4304C7.31126 19.4304 7.25674 19.3426 7.25674 19.1142C7.25674 18.8331 7.31126 18.7803 7.54781 18.7803H8.51159C8.74814 18.7803 8.85718 18.8507 8.85718 19.0966C8.85718 19.3777 8.74814 19.448 8.51159 19.448H7.54781V19.4304Z" fill="#CDCDCD"/>
<path d="M8.5296 19.4304C8.29306 19.4304 8.23854 19.3426 8.23854 19.1142C8.23854 18.8331 8.29306 18.7803 8.5296 18.7803H9.49339C9.72994 18.7803 9.83895 18.8507 9.83895 19.0966C9.83895 19.3777 9.72994 19.448 9.49339 19.448H8.5296V19.4304Z" fill="#CDCDCD"/>
<path d="M10.8754 19.0087C10.6205 19.3775 10.1846 19.4301 9.85672 19.4301H9.47523C9.23879 19.4301 9.12979 19.3248 9.12979 19.0964C9.12979 18.8155 9.23879 18.7804 9.47523 18.7804H9.9112C10.1661 18.7804 10.457 18.5872 10.457 18.0077C10.457 17.9023 10.457 17.797 10.457 17.6741C10.457 16.3745 11.075 15.8302 12.1297 15.8302C13.1845 15.8302 13.8032 16.3745 13.8032 17.6741C13.8032 17.797 13.7848 17.9374 13.7848 18.0429C13.7848 18.6223 14.0757 18.7979 14.3306 18.7979H14.5847C14.8211 18.7979 14.9309 18.8858 14.9309 19.114C14.9309 19.4126 14.8211 19.4652 14.5847 19.4652H14.3851C14.0573 19.4652 13.6028 19.4301 13.3664 19.0614C13.0755 19.395 12.6395 19.5355 12.1121 19.5355C11.5847 19.5004 11.1664 19.3423 10.8754 19.0087ZM11.2024 17.6565C11.2024 18.4643 11.4758 18.8331 12.1482 18.8331C12.8215 18.8331 13.0939 18.4818 13.0939 17.6565C13.0939 16.9013 12.8215 16.4624 12.1482 16.4624C11.4758 16.4624 11.2024 16.9013 11.2024 17.6565Z" fill="#CDCDCD"/>
<path d="M18.8405 17.1297C18.8405 17.8672 18.2947 18.4818 17.8218 18.7452C17.8948 18.7628 17.9853 18.7628 18.0952 18.7628H19.3864C19.6228 18.7628 19.7318 18.8155 19.7318 19.0614C19.7318 19.3423 19.6228 19.4301 19.3864 19.4301H18.1497C17.7313 19.4301 17.3489 19.3775 17.0035 19.1667C16.622 19.3775 16.1492 19.4301 15.8037 19.4301H14.6031C14.3666 19.4301 14.2576 19.3248 14.2576 19.0964C14.2576 18.8155 14.3666 18.7804 14.6031 18.7804H15.7308C15.8758 18.7804 16.1307 18.7804 16.4761 18.6926C16.2766 17.7794 15.8037 17.4809 15.2763 17.0945C15.1674 17.0243 15.1489 16.9892 15.1489 16.9189V16.4096C15.1489 16.3394 15.1674 16.2692 15.2394 16.234C15.5128 16.076 16.1667 15.795 16.9859 15.795C18.2587 15.8126 18.8405 16.3219 18.8405 17.1297ZM15.9127 16.6907C16.513 17.0243 16.9859 17.6214 17.1854 18.4291C17.5678 18.2009 18.0583 17.7267 18.0583 17.1824C18.0583 16.6204 17.5854 16.4624 16.9859 16.4624C16.4761 16.4624 16.0402 16.6204 15.9127 16.6907Z" fill="#CDCDCD"/>
<path d="M19.3866 19.4304C19.15 19.4304 19.0955 19.3426 19.0955 19.1142C19.0955 18.8331 19.15 18.7803 19.3866 18.7803H20.3503C20.5869 18.7803 20.6959 18.8507 20.6959 19.0966C20.6959 19.3777 20.5869 19.448 20.3503 19.448H19.3866V19.4304Z" fill="#CDCDCD"/>
<path d="M20.3683 19.4304C20.1318 19.4304 20.0772 19.3426 20.0772 19.1142C20.0772 18.8331 20.1318 18.7803 20.3683 18.7803H21.3321C21.5686 18.7803 21.6777 18.8507 21.6777 19.0966C21.6777 19.3777 21.5686 19.448 21.3321 19.448H20.3683V19.4304Z" fill="#CDCDCD"/>
<path d="M21.3316 19.4301C21.0951 19.4301 20.9861 19.3775 20.9861 19.1316C20.9861 18.8506 21.0951 18.7628 21.3316 18.7628H21.8774C22.1684 18.7628 22.2958 18.6574 22.2958 18.3062V13.7228C22.2958 13.6701 22.3142 13.6351 22.3863 13.6351H22.9506C23.0051 13.6351 23.0412 13.6526 23.0412 13.7228V18.3414C23.0412 19.0964 22.7502 19.4125 22.0049 19.4125H21.3316V19.4301Z" fill="#CDCDCD"/>
<path d="M25.0232 19.3423C25.0232 19.3951 25.0056 19.4301 24.9327 19.4301H24.3684C24.3139 19.4301 24.2778 19.4126 24.2778 19.3423V13.7404C24.2778 13.6877 24.2963 13.6526 24.3684 13.6526H24.9327C24.9872 13.6526 25.0232 13.6701 25.0232 13.7404V19.3423Z" fill="#CDCDCD"/>
<path d="M26.8787 21.1335C26.8242 21.1335 26.7873 21.1159 26.7873 21.0457V20.554C26.7873 20.5013 26.8058 20.4662 26.8787 20.4662H27.9335C28.4064 20.4662 28.7518 20.2906 28.7518 19.6584V19.4301H27.806C26.7697 19.4301 26.1325 18.9911 26.1325 17.7091C26.1325 16.4096 26.8963 15.8126 27.8245 15.8126C28.8793 15.8126 29.4787 16.3569 29.4787 17.6741V19.6584C29.4787 20.7121 28.8793 21.1511 27.9511 21.1511H26.8787V21.1335ZM26.8603 17.7091C26.8603 18.517 27.1873 18.7804 27.8606 18.7804H28.7518V17.6741C28.7518 16.9189 28.4969 16.4799 27.8245 16.4799C27.2242 16.4623 26.8603 16.954 26.8603 17.7091Z" fill="#CDCDCD"/>
<path d="M33.9166 21.116C33.0068 21.116 32.461 20.7648 32.461 19.9569C32.461 19.0262 33.1703 18.7628 33.7162 18.7628H35.0979C35.7527 18.7628 35.8617 18.5697 35.8617 17.955C35.8617 17.0594 35.5708 16.4624 34.6619 16.4624C34.262 16.4624 33.9166 16.638 33.6617 16.9013C33.6256 16.9365 33.5887 16.9365 33.5342 16.9013L33.1528 16.6028C33.0983 16.5677 33.0983 16.5326 33.1343 16.4799C33.4613 16.076 33.9341 15.795 34.6435 15.795C36.2625 15.795 36.644 16.8487 36.644 17.955C36.644 18.0604 36.6255 18.1482 36.644 18.236C36.6624 18.5872 36.971 18.7628 37.4438 18.7628H37.5353C37.7717 18.7628 37.8807 18.8506 37.8807 19.079C37.8807 19.3775 37.7717 19.4301 37.5353 19.4301H37.3533C36.9534 19.4301 36.6079 19.2721 36.4805 18.9384C36.2801 19.3072 35.9347 19.4301 35.3888 19.4301H33.7346C33.3707 19.4301 33.2433 19.6584 33.2433 19.9394C33.2433 20.3082 33.4068 20.4662 34.0071 20.4662H34.298C34.3525 20.4662 34.3886 20.4838 34.3886 20.554V21.0457C34.3886 21.0985 34.371 21.1335 34.298 21.1335H33.9166V21.116ZM34.807 21.0106C34.7525 21.0106 34.7164 20.993 34.7164 20.9228V20.3082C34.7164 20.2555 34.7349 20.2204 34.807 20.2204H35.4073C35.4618 20.2204 35.4987 20.238 35.4987 20.3082V20.9228C35.4987 20.9755 35.4803 21.0106 35.4073 21.0106H34.807Z" fill="#CDCDCD"/>
<path d="M37.5353 19.4304C37.2988 19.4304 37.2443 19.3426 37.2443 19.1142C37.2443 18.8331 37.2988 18.7803 37.5353 18.7803H38.4991C38.7357 18.7803 38.8447 18.8507 38.8447 19.0966C38.8447 19.3777 38.7357 19.448 38.4991 19.448H37.5353V19.4304Z" fill="#CDCDCD"/>
<path d="M38.5171 19.4304C38.2806 19.4304 38.2261 19.3426 38.2261 19.1142C38.2261 18.8331 38.2806 18.7803 38.5171 18.7803H39.4818C39.7183 18.7803 39.8274 18.8507 39.8274 19.0966C39.8274 19.3777 39.7183 19.448 39.4818 19.448H38.5171V19.4304Z" fill="#CDCDCD"/>
<path d="M39.4989 19.4304C39.2624 19.4304 39.2078 19.3426 39.2078 19.1142C39.2078 18.8331 39.2624 18.7803 39.4989 18.7803H40.4636C40.7001 18.7803 40.8092 18.8507 40.8092 19.0966C40.8092 19.3777 40.7001 19.448 40.4636 19.448H39.4989V19.4304Z" fill="#CDCDCD"/>
<path d="M41.5178 16.9013C41.4809 16.9365 41.4449 16.9365 41.3904 16.9013L41.0089 16.6028C40.9535 16.5677 40.9535 16.5326 40.9904 16.4799C41.3174 16.076 41.7903 15.795 42.4996 15.795C44.1178 15.795 44.5002 16.8487 44.5002 17.955C44.5002 18.0604 44.4817 18.1482 44.5002 18.236C44.5186 18.5872 44.8271 18.7628 45.3 18.7628H45.3914C45.6278 18.7628 45.7368 18.8506 45.7368 19.079C45.7368 19.3775 45.6278 19.4301 45.3914 19.4301H45.2095C44.8095 19.4301 44.4641 19.2721 44.3367 18.9384C44.1363 19.3072 43.7908 19.4301 43.245 19.4301H40.4815C40.2451 19.4301 40.1352 19.3248 40.1352 19.0964C40.1352 18.8155 40.2451 18.7804 40.4815 18.7804H42.9725C43.6273 18.7804 43.7363 18.5872 43.7363 17.9726C43.7363 17.077 43.4454 16.4799 42.5357 16.4799C42.1182 16.4624 41.7727 16.638 41.5178 16.9013Z" fill="#CDCDCD"/>
<path d="M45.373 19.4301C45.1365 19.4301 45.0275 19.3775 45.0275 19.1316C45.0275 18.8506 45.1365 18.7628 45.373 18.7628H45.9188C46.2097 18.7628 46.3372 18.6574 46.3372 18.3062V13.7228C46.3372 13.6701 46.3548 13.6351 46.4277 13.6351H46.9911C47.0456 13.6351 47.0826 13.6526 47.0826 13.7228V18.3414C47.0826 19.0964 46.7916 19.4125 46.0462 19.4125H45.373V19.4301Z" fill="#CDCDCD"/>
<path d="M49.0646 19.3423C49.0646 19.3951 49.0461 19.4301 48.974 19.4301H48.4097C48.3552 19.4301 48.3192 19.4126 48.3192 19.3423V13.7404C48.3192 13.6877 48.3368 13.6526 48.4097 13.6526H48.974C49.0285 13.6526 49.0646 13.6701 49.0646 13.7404V19.3423Z" fill="#CDCDCD"/>
<path d="M52.1927 17.6565C52.1927 16.3569 52.8107 15.795 53.8654 15.795C54.9202 15.795 55.539 16.3394 55.539 17.6565C55.539 18.956 54.8841 19.5004 53.8654 19.5004C52.8291 19.5004 52.1927 18.956 52.1927 17.6565ZM52.9196 17.6565C52.9196 18.4643 53.193 18.8331 53.8654 18.8331C54.5387 18.8331 54.8112 18.4818 54.8112 17.6565C54.8112 16.9013 54.5387 16.4623 53.8654 16.4623C53.193 16.4623 52.9196 16.9013 52.9196 17.6565ZM53.0286 15.1102C52.9741 15.1102 52.9381 15.0926 52.9381 15.0223V14.4077C52.9381 14.355 52.9566 14.3199 53.0286 14.3199H53.629C53.6835 14.3199 53.7204 14.3374 53.7204 14.4077V15.0223C53.7204 15.075 53.7019 15.1102 53.629 15.1102H53.0286ZM54.1019 15.1102C54.0474 15.1102 54.0113 15.0926 54.0113 15.0223V14.4077C54.0113 14.355 54.0289 14.3199 54.1019 14.3199H54.7022C54.7567 14.3199 54.7927 14.3374 54.7927 14.4077V15.0223C54.7927 15.075 54.7752 15.1102 54.7022 15.1102H54.1019Z" fill="#CDCDCD"/>
<path d="M56.1209 21.116C56.0664 21.116 56.0295 21.0984 56.0295 21.0282V20.5365C56.0295 20.4838 56.048 20.4487 56.1209 20.4487H56.3205C56.7933 20.4487 57.0298 20.2028 57.0298 19.7287V16.0409C57.0298 15.9882 57.0482 15.9531 57.1212 15.9531H57.6846C57.7391 15.9531 57.7751 15.9707 57.7751 16.0409V19.7287C57.7751 20.6418 57.2847 21.1335 56.3574 21.1335H56.1209V21.116Z" fill="#CDCDCD"/>
<path d="M59.7027 19.3423C59.7027 19.3951 59.6851 19.4301 59.6122 19.4301H59.0487C58.9942 19.4301 58.9573 19.4126 58.9573 19.3423V13.7404C58.9573 13.6877 58.9758 13.6526 59.0487 13.6526H59.6122C59.6667 13.6526 59.7027 13.6701 59.7027 13.7404V19.3423Z" fill="#CDCDCD"/>
<path d="M60.412 21.1335C60.3575 21.1335 60.3215 21.1159 60.3215 21.0457V20.554C60.3215 20.5013 60.34 20.4662 60.412 20.4662H60.6124C61.0853 20.4662 61.3218 20.2204 61.3218 19.7462V16.0408C61.3218 15.9882 61.3402 15.9531 61.4123 15.9531H61.9766C62.0311 15.9531 62.0671 15.9707 62.0671 16.0408V19.7287C62.0671 20.6418 61.5766 21.1335 60.6485 21.1335H60.412ZM61.4123 15.1102C61.3578 15.1102 61.3218 15.0926 61.3218 15.0223V14.4077C61.3218 14.355 61.3402 14.3199 61.4123 14.3199H62.0126C62.0671 14.3199 62.104 14.3374 62.104 14.4077V15.0223C62.104 15.075 62.0856 15.1102 62.0126 15.1102H61.4123Z" fill="#CDCDCD"/>
<path d="M63.8672 21.1335C63.8127 21.1335 63.7767 21.1159 63.7767 21.0457V20.554C63.7767 20.5013 63.7951 20.4662 63.8672 20.4662H64.9219C65.3948 20.4662 65.7403 20.2906 65.7403 19.6584V19.4301H64.7954C63.7582 19.4301 63.1218 18.9911 63.1218 17.7091C63.1218 16.4096 63.8857 15.8126 64.813 15.8126C65.8677 15.8126 66.468 16.3569 66.468 17.6741V19.6584C66.468 20.7121 65.8677 21.1511 64.9404 21.1511H63.8672V21.1335ZM63.8496 17.7091C63.8496 18.517 64.1766 18.7804 64.8499 18.7804H65.7403V17.6741C65.7403 16.9189 65.4862 16.4799 64.813 16.4799C64.2135 16.4623 63.8496 16.954 63.8496 17.7091Z" fill="#CDCDCD"/>
<path d="M0.0184548 23.9433C0.0184548 23.9082 0.0369233 23.8906 0.0729607 23.8906H0.400801C0.436839 23.8906 0.472877 23.9082 0.472877 23.9433L1.47314 26.1384H1.49162L2.4734 23.9433C2.49185 23.9082 2.51032 23.8906 2.54636 23.8906H2.87334C2.91026 23.8906 2.92782 23.9082 2.92782 23.9433V27.1042C2.92782 27.1394 2.91026 27.1569 2.87334 27.1569H2.56481C2.52789 27.1569 2.51033 27.1394 2.51033 27.1042V24.8388H2.49188L1.65508 26.6301C1.63662 26.6652 1.60059 26.6828 1.56455 26.6828H1.36415C1.32811 26.6828 1.2912 26.6652 1.27362 26.6301L0.436852 24.8388H0.418398V27.1042C0.418398 27.1394 0.400808 27.1569 0.363892 27.1569H0.054506C0.0184685 27.1569 0 27.1394 0 27.1042V23.9433H0.0184548Z" fill="#CDCDCD"/>
<path d="M3.72859 23.9433C3.72859 23.9082 3.74618 23.8906 3.7831 23.8906H4.12853C4.16457 23.8906 4.18301 23.9082 4.18301 23.9433V27.1042C4.18301 27.1394 4.16457 27.1569 4.12853 27.1569H3.7831C3.74618 27.1569 3.72859 27.1394 3.72859 27.1042V23.9433Z" fill="#CDCDCD"/>
<path d="M4.96529 23.9433C4.96529 23.9082 4.98285 23.8906 5.01977 23.8906H5.32829C5.36521 23.8906 5.40125 23.9082 5.41971 23.9433L6.94732 26.3842H6.96581V23.9433C6.96581 23.9082 6.98337 23.8906 7.02028 23.8906H7.32881C7.36573 23.8906 7.38329 23.9082 7.38329 23.9433V27.1042C7.38329 27.1394 7.36573 27.1569 7.32881 27.1569H7.02028C6.98337 27.1569 6.94733 27.1394 6.92887 27.1042L5.40125 24.6808H5.38366V27.1042C5.38366 27.1394 5.36521 27.1569 5.32829 27.1569H5.01977C4.98285 27.1569 4.96529 27.1394 4.96529 27.1042V23.9433Z" fill="#CDCDCD"/>
<path d="M8.16559 23.9433C8.16559 23.9082 8.18406 23.8906 8.22009 23.8906H8.5655C8.60242 23.8906 8.62001 23.9082 8.62001 23.9433V27.1042C8.62001 27.1394 8.60242 27.1569 8.5655 27.1569H8.22009C8.18406 27.1569 8.16559 27.1394 8.16559 27.1042V23.9433Z" fill="#CDCDCD"/>
<path d="M9.25638 26.7881C9.2388 26.7706 9.2388 26.7354 9.25638 26.7179L9.47523 26.4721C9.49281 26.4545 9.51127 26.4545 9.54731 26.4721C9.76617 26.6477 10.0932 26.8057 10.4931 26.8057C10.966 26.8057 11.2393 26.5774 11.2393 26.2437C11.2393 25.9628 11.075 25.7872 10.53 25.7169L10.3656 25.6994C9.71168 25.6116 9.38382 25.2955 9.38382 24.8038C9.38382 24.2242 9.80221 23.8555 10.4755 23.8555C10.8754 23.8555 11.2393 23.9784 11.4934 24.1541C11.5118 24.1716 11.5303 24.1891 11.5118 24.2242L11.3483 24.4877C11.3299 24.5053 11.3114 24.5053 11.2754 24.5053C11.0029 24.3297 10.7664 24.2594 10.457 24.2594C10.0387 24.2594 9.82067 24.4701 9.82067 24.7862C9.82067 25.0672 10.0026 25.2252 10.53 25.3131L10.6935 25.3306C11.3483 25.4184 11.6753 25.6994 11.6753 26.2437C11.6753 26.8057 11.2569 27.2272 10.457 27.2272C9.94812 27.1921 9.51128 26.9989 9.25638 26.7881Z" fill="#CDCDCD"/>
<path d="M13.0579 27.1394C13.021 27.1394 13.0025 27.1218 13.0025 27.0867V24.3121C13.0025 24.2945 12.9849 24.277 12.9665 24.277H12.0392C12.0031 24.277 11.9846 24.2594 11.9846 24.2242V23.9433C11.9846 23.9082 12.0031 23.8906 12.0392 23.8906H14.3851C14.4211 23.8906 14.4396 23.9082 14.4396 23.9433V24.2418C14.4396 24.277 14.4211 24.2945 14.3851 24.2945H13.4578C13.4393 24.2945 13.4209 24.3121 13.4209 24.3296V27.1042C13.4209 27.1394 13.4033 27.1569 13.3664 27.1569H13.0579V27.1394Z" fill="#CDCDCD"/>
<path d="M16.8946 27.1394C16.8586 27.1394 16.8401 27.1218 16.8216 27.0867L16.1492 25.752H15.403C15.3854 25.752 15.367 25.7696 15.367 25.7872V27.0867C15.367 27.1218 15.3485 27.1394 15.3125 27.1394H14.967C14.931 27.1394 14.9125 27.1218 14.9125 27.0867V23.9257C14.9125 23.8906 14.931 23.873 14.967 23.873H16.1853C16.8216 23.873 17.24 24.2418 17.24 24.8038C17.24 25.2428 16.9851 25.5589 16.5852 25.6818L17.2945 27.0516C17.313 27.0867 17.313 27.1042 17.2585 27.1042H16.8946V27.1394ZM16.2037 25.3658C16.6037 25.3658 16.8216 25.1726 16.8216 24.8214C16.8216 24.4701 16.5852 24.2769 16.2037 24.2769H15.4215C15.403 24.2769 15.3854 24.2945 15.3854 24.3121V25.3306C15.3854 25.3482 15.403 25.3658 15.4215 25.3658H16.2037Z" fill="#CDCDCD"/>
<path d="M18.677 27.1394C18.6401 27.1394 18.6225 27.1218 18.6225 27.0867V25.8048L17.6399 23.9433C17.6223 23.9082 17.6399 23.8906 17.6768 23.8906H18.0222C18.0582 23.8906 18.0767 23.9082 18.0952 23.9433L18.8405 25.3306H18.859L19.6044 23.9433C19.6228 23.9082 19.6404 23.8906 19.6773 23.8906H20.0227C20.0588 23.8906 20.0772 23.9082 20.0588 23.9433L19.0585 25.8048V27.0867C19.0585 27.1218 19.04 27.1394 19.004 27.1394H18.677Z" fill="#CDCDCD"/>
<path d="M21.5679 26.4369C21.4959 26.2437 21.4774 26.0681 21.4774 25.5238C21.4774 24.9794 21.4959 24.8038 21.5679 24.6106C21.7499 24.1013 22.1323 23.8555 22.7141 23.8555C23.296 23.8555 23.6959 24.1189 23.8594 24.6106C23.9324 24.8038 23.9508 24.997 23.9508 25.5238C23.9508 26.0681 23.9324 26.2437 23.8594 26.4369C23.6775 26.9462 23.296 27.1921 22.7141 27.1921C22.1323 27.1921 21.7499 26.9286 21.5679 26.4369ZM23.441 26.314C23.4779 26.1911 23.514 25.9979 23.514 25.5238C23.514 25.0496 23.4779 24.8389 23.441 24.7335C23.332 24.4174 23.0956 24.2594 22.7317 24.2594C22.3502 24.2594 22.1322 24.435 22.0233 24.7335C21.9863 24.8564 21.9503 25.0672 21.9503 25.5238C21.9503 25.9979 21.9863 26.2087 22.0233 26.314C22.1322 26.6301 22.3502 26.7881 22.7317 26.7881C23.0956 26.8057 23.332 26.6301 23.441 26.314Z" fill="#CDCDCD"/>
<path d="M24.6417 23.9433C24.6417 23.9082 24.6602 23.8906 24.6963 23.8906H26.7143C26.7513 23.8906 26.7697 23.9082 26.7697 23.9433V24.2418C26.7697 24.277 26.7513 24.2945 26.7143 24.2945H25.1146C25.0962 24.2945 25.0777 24.3121 25.0777 24.3296V25.3131C25.0777 25.3306 25.0962 25.3481 25.1146 25.3481H26.4788C26.5148 25.3481 26.5333 25.3657 26.5333 25.4008V25.6993C26.5333 25.7345 26.5148 25.752 26.4788 25.752H25.1146C25.0962 25.752 25.0777 25.7696 25.0777 25.7872V27.1218C25.0777 27.1569 25.0601 27.1745 25.0232 27.1745H24.6778C24.6418 27.1745 24.6233 27.1569 24.6233 27.1218V23.9433H24.6417Z" fill="#CDCDCD"/>
<path d="M28.5153 23.9433C28.5153 23.9082 28.5329 23.8906 28.5698 23.8906H28.9152C28.9513 23.8906 28.9697 23.9082 28.9697 23.9433V25.2779C28.9697 25.2955 28.9882 25.3131 29.0058 25.3131H30.4613C30.4789 25.3131 30.4974 25.2955 30.4974 25.2779V23.9433C30.4974 23.9082 30.5158 23.8906 30.5519 23.8906H30.8973C30.9333 23.8906 30.9518 23.9082 30.9518 23.9433V27.1042C30.9518 27.1394 30.9333 27.1569 30.8973 27.1569H30.5519C30.5158 27.1569 30.4974 27.1394 30.4974 27.1042V25.7345C30.4974 25.7169 30.4789 25.6993 30.4613 25.6993H29.0058C28.9882 25.6993 28.9697 25.7169 28.9697 25.7345V27.1042C28.9697 27.1394 28.9513 27.1569 28.9152 27.1569H28.5698C28.5329 27.1569 28.5153 27.1394 28.5153 27.1042V23.9433Z" fill="#CDCDCD"/>
<path d="M32.5885 23.9433C32.6069 23.9082 32.6254 23.8906 32.6429 23.8906H32.9708C33.0068 23.8906 33.0253 23.9082 33.0429 23.9433L34.189 27.1042C34.2075 27.1394 34.1891 27.1569 34.153 27.1569H33.8067C33.7707 27.1569 33.7522 27.1394 33.7346 27.1042L33.4797 26.4018H32.1156L31.8615 27.1042C31.8431 27.1394 31.8246 27.1569 31.7886 27.1569H31.4607C31.4247 27.1569 31.4247 27.1394 31.4247 27.1042L32.5885 23.9433ZM33.3338 25.9979L32.8064 24.5228H32.7889L32.2615 25.9979H33.3338Z" fill="#CDCDCD"/>
<path d="M34.4439 26.7881L34.6979 26.5774C34.7164 26.5598 34.7524 26.5598 34.7709 26.595C34.8799 26.6828 35.0434 26.7881 35.2622 26.7881C35.6622 26.7881 35.8802 26.5598 35.8802 26.0857V23.9433C35.8802 23.9082 35.8986 23.8906 35.9346 23.8906H36.2801C36.317 23.8906 36.3346 23.9082 36.3346 23.9433V26.1033C36.3346 26.8409 35.9162 27.1921 35.2622 27.1921C34.9159 27.1921 34.625 27.0515 34.4615 26.8584C34.4255 26.8409 34.4255 26.8233 34.4439 26.7881Z" fill="#CDCDCD"/>
<path d="M36.8444 26.7881L37.0984 26.5774C37.1168 26.5598 37.1529 26.5598 37.1713 26.595C37.2803 26.6828 37.4438 26.7881 37.6627 26.7881C38.0626 26.7881 38.2806 26.5598 38.2806 26.0857V23.9433C38.2806 23.9082 38.2991 23.8906 38.3351 23.8906H38.6805C38.7175 23.8906 38.735 23.9082 38.735 23.9433V26.1033C38.735 26.8409 38.3166 27.1921 37.6627 27.1921C37.3172 27.1921 37.0263 27.0515 36.862 26.8584C36.8259 26.8409 36.8259 26.8233 36.8444 26.7881Z" fill="#CDCDCD"/>
<path d="M41.5178 23.9433C41.5363 23.9082 41.5538 23.8906 41.5723 23.8906H41.8993C41.9362 23.8906 41.9538 23.9082 41.9722 23.9433L43.1184 27.1042C43.136 27.1394 43.1184 27.1569 43.0815 27.1569H42.736C42.7 27.1569 42.6815 27.1394 42.6631 27.1042L42.4091 26.4018H41.0449L40.79 27.1042C40.7724 27.1394 40.754 27.1569 40.7179 27.1569H40.3716C40.3356 27.1569 40.3356 27.1394 40.3356 27.1042L41.5178 23.9433ZM42.2816 25.9979L41.7542 24.5228H41.7358L41.2084 25.9979H42.2816Z" fill="#CDCDCD"/>
<path d="M43.6273 23.9433C43.6273 23.9082 43.6458 23.8906 43.6818 23.8906H43.9912C44.0272 23.8906 44.0633 23.9082 44.0817 23.9433L45.6094 26.3842H45.6278V23.9433C45.6278 23.9082 45.6454 23.8906 45.6823 23.8906H45.9917C46.0278 23.8906 46.0462 23.9082 46.0462 23.9433V27.1042C46.0462 27.1394 46.0278 27.1569 45.9917 27.1569H45.6823C45.6454 27.1569 45.6094 27.1394 45.5909 27.1042L44.0633 24.6808H44.0457V27.1042C44.0457 27.1394 44.0272 27.1569 43.9912 27.1569H43.6818C43.6458 27.1569 43.6273 27.1394 43.6273 27.1042V23.9433Z" fill="#CDCDCD"/>
<path d="M46.846 23.9433C46.846 23.9082 46.8645 23.8906 46.9005 23.8906H48.0282C48.6101 23.8906 48.974 24.1189 49.119 24.5755C49.1735 24.7511 49.2105 24.9267 49.2105 25.5062C49.2105 26.0857 49.1735 26.2613 49.119 26.4369C48.974 26.8935 48.6101 27.1218 48.0282 27.1218H46.9005C46.8645 27.1218 46.846 27.1042 46.846 27.0691V23.9433ZM47.282 26.7179C47.282 26.7354 47.3005 26.753 47.3189 26.753H47.9368C48.3552 26.753 48.5917 26.6301 48.7007 26.314C48.7376 26.1911 48.7736 26.033 48.7736 25.5237C48.7736 25.0145 48.7376 24.8564 48.7007 24.7335C48.5917 24.3999 48.3552 24.2945 47.9368 24.2945H47.3189C47.3005 24.2945 47.282 24.3121 47.282 24.3296V26.7179Z" fill="#CDCDCD"/>
<path d="M51.0291 26.0155V23.9433C51.0291 23.9082 51.0466 23.8906 51.0836 23.8906H51.429C51.465 23.8906 51.4835 23.9082 51.4835 23.9433V26.0155C51.4835 26.5423 51.7744 26.8057 52.2289 26.8057C52.6833 26.8057 52.9742 26.5423 52.9742 26.0155V23.9433C52.9742 23.9082 52.9926 23.8906 53.0287 23.8906H53.3741C53.411 23.8906 53.4295 23.9082 53.4295 23.9433V26.0155C53.4295 26.7881 52.9742 27.1921 52.2473 27.1921C51.465 27.1921 51.0291 26.7706 51.0291 26.0155Z" fill="#CDCDCD"/>
<path d="M54.1749 23.9433C54.1749 23.9082 54.1933 23.8906 54.2294 23.8906H54.5563C54.5932 23.8906 54.6293 23.9082 54.6293 23.9433L55.6295 26.1384H55.648L56.6298 23.9433C56.6483 23.9082 56.6658 23.8906 56.7028 23.8906H57.0297C57.0666 23.8906 57.0842 23.9082 57.0842 23.9433V27.1042C57.0842 27.1394 57.0666 27.1569 57.0297 27.1569H56.7203C56.6843 27.1569 56.6658 27.1394 56.6658 27.1042V24.8388H56.6483L55.8115 26.6301C55.793 26.6652 55.757 26.6828 55.7201 26.6828H55.5206C55.4845 26.6828 55.4476 26.6652 55.4291 26.6301L54.5932 24.8388H54.5748V27.1042C54.5748 27.1394 54.5563 27.1569 54.5203 27.1569H54.2109C54.1748 27.1569 54.1564 27.1394 54.1564 27.1042V23.9433H54.1749Z" fill="#CDCDCD"/>
<path d="M59.8486 27.1394C59.8125 27.1394 59.7941 27.1218 59.7756 27.0867L59.1032 25.752H58.357C58.3394 25.752 58.3209 25.7696 58.3209 25.7872V27.0867C58.3209 27.1218 58.3025 27.1394 58.2664 27.1394H57.921C57.885 27.1394 57.8665 27.1218 57.8665 27.0867V23.9257C57.8665 23.8906 57.885 23.873 57.921 23.873H59.1393C59.7756 23.873 60.194 24.2418 60.194 24.8038C60.194 25.2428 59.9391 25.5589 59.5392 25.6818L60.2485 27.0516C60.267 27.0867 60.2669 27.1042 60.2124 27.1042H59.8486V27.1394ZM59.1393 25.3658C59.5392 25.3658 59.758 25.1726 59.758 24.8214C59.758 24.4701 59.5216 24.2769 59.1393 24.2769H58.357C58.3394 24.2769 58.3209 24.2945 58.3209 24.3121V25.3306C58.3209 25.3482 58.3394 25.3658 58.357 25.3658H59.1393Z" fill="#CDCDCD"/>
<path d="M61.7946 23.9433C61.813 23.9082 61.8306 23.8906 61.8491 23.8906H62.176C62.2129 23.8906 62.2305 23.9082 62.249 23.9433L63.3951 27.1042C63.4127 27.1394 63.3952 27.1569 63.3582 27.1569H63.0128C62.9768 27.1569 62.9583 27.1394 62.9398 27.1042L62.6858 26.4018H61.3217L61.0668 27.1042C61.0492 27.1394 61.0307 27.1569 60.9938 27.1569H60.6484C60.6124 27.1569 60.6124 27.1394 60.6124 27.1042L61.7946 23.9433ZM62.5399 25.9979L62.0125 24.5228H61.9941L61.4667 25.9979H62.5399Z" fill="#CDCDCD"/>
<path d="M63.8857 23.9433C63.8857 23.9082 63.9041 23.8906 63.9401 23.8906H64.2856C64.3225 23.8906 64.3401 23.9082 64.3401 23.9433V25.2779C64.3401 25.2955 64.3585 25.3131 64.377 25.3131H65.8317C65.8501 25.3131 65.8677 25.2955 65.8677 25.2779V23.9433C65.8677 23.9082 65.8862 23.8906 65.9222 23.8906H66.2676C66.3045 23.8906 66.323 23.9082 66.323 23.9433V27.1042C66.323 27.1394 66.3045 27.1569 66.2676 27.1569H65.9222C65.8862 27.1569 65.8677 27.1394 65.8677 27.1042V25.7345C65.8677 25.7169 65.8501 25.6993 65.8317 25.6993H64.377C64.3585 25.6993 64.3401 25.7169 64.3401 25.7345V27.1042C64.3401 27.1394 64.3225 27.1569 64.2856 27.1569H63.9401C63.9041 27.1569 63.8857 27.1394 63.8857 27.1042V23.9433Z" fill="#CDCDCD"/>
<g opacity="0.2">
<path d="M76.521 13.8354L76.2686 13.3485C82.5871 10.2405 85.0639 5.58575 85.079 5.52846C84.975 5.72897 83.0022 10.6416 76.521 13.8354Z" fill="#CDCDCD"/>
</g>
<g opacity="0.2">
<path d="M95.6241 12.7899C89.5135 10.083 87.897 5.70032 87.8081 5.52846C87.8232 5.57143 89.9436 9.68193 95.8614 12.303L95.6241 12.7899Z" fill="#CDCDCD"/>
</g>
<path d="M72.1903 15.9838H72.0563L72.0864 12.6324L72.1753 12.5608C72.2491 12.5035 80.3627 10.2549 86.2955 0.372384L86.5177 0L86.7399 0.372384C92.5839 10.2549 101.186 12.5035 101.275 12.5608L101.379 12.6324V15.9838H101.246L100.86 12.8759C99.8809 12.1311 92.0498 11.6584 86.5027 2.47778C80.8967 11.6584 73.495 12.1311 72.576 12.8616L72.1903 15.9838Z" fill="#CDCDCD"/>
<path d="M72.7093 39C72.7093 39 75.5424 36.4936 76.7733 35.4194C79.4723 34.9897 87.4518 33.758 100.326 24.7348C95.0757 30.3492 86.2503 36.6511 72.7093 39Z" fill="#CDCDCD"/>
<path d="M87.0812 34.8035C90.9229 36.5795 95.3725 38.0404 100.504 38.9284C100.504 38.9284 97.6715 36.4219 96.4399 35.3478C95.194 35.1473 92.8362 34.7892 89.3952 33.5575C89.0239 33.8153 88.3271 34.202 87.0812 34.8035Z" fill="#CDCDCD"/>
<path d="M86.3249 32.3544C82.7061 30.7932 78.2264 28.387 72.9022 24.6632C75.6163 27.5707 79.2795 30.65 84.0553 33.271C84.6044 33.0562 85.4051 32.7411 86.3249 32.3544Z" fill="#CDCDCD"/>
<path d="M98.2644 22.1138C98.2644 22.1138 96.2177 23.9471 94.6305 24.2765C93.0434 24.6059 91.0562 24.5343 89.3802 24.7778C87.7041 25.0213 86.7256 26.6254 86.7256 26.6254C86.7256 26.6254 85.7464 25.0213 84.0703 24.7778C82.3943 24.5343 80.4071 24.5916 78.82 24.2765C77.2328 23.9471 75.1862 22.1138 75.1862 22.1138C75.1862 22.1138 73.1839 21.6125 72.0563 21.8703C72.3975 22.1425 73.0355 22.6008 73.0205 22.6008C78.4787 26.4249 83.0473 28.8454 86.7256 30.4065C90.3594 28.8597 94.8979 26.4535 100.297 22.6868C100.608 22.4575 101.009 22.1711 101.379 21.8703C100.252 21.6125 98.2644 22.1138 98.2644 22.1138Z" fill="#CDCDCD"/>
<path d="M90.611 16.213V24.3195C90.196 24.3482 89.7658 24.3911 89.3801 24.4484C88.0453 24.6346 87.1557 25.7088 86.8439 26.1241L86.7256 26.2817C86.4876 25.9523 86.0876 25.05 85.0639 24.649C84.871 24.5773 84.5298 24.5343 84.4854 24.52V17.903L90.611 16.213Z" fill="#CDCDCD"/>
<path d="M90.611 13.8068L84.4854 15.4682V17.502L90.611 15.8406V13.8068Z" fill="#CDCDCD"/>
<path d="M96.7073 17.6309V23.0161C96.7073 23.0161 95.1495 23.8325 94.1853 24.0187C93.3846 24.1763 91.8125 24.2193 90.611 24.3195V16.213L96.7073 17.6309Z" fill="#CDCDCD"/>
<path d="M90.611 13.8068V15.4396V15.8406L96.7073 17.2729V15.3393L90.611 13.8068Z" fill="#CDCDCD"/>
<path d="M84.2632 20.0228H77.0256V21.3261H84.2632V20.0228Z" fill="#CDCDCD"/>
<path d="M84.2632 18.5189H77.3368V19.8222H84.2632V18.5189Z" fill="#CDCDCD"/>
<path d="M84.2631 21.5123V24.4484C84.2481 24.4484 84.2337 24.4484 84.2187 24.4341C82.5426 24.1906 80.4214 24.2479 78.835 23.9328C78.7905 23.9185 78.731 23.9042 78.6866 23.9042C78.6422 23.8898 78.5827 23.8755 78.5382 23.8612C77.9446 23.675 77.3073 23.3169 76.7432 22.9589V21.5123H84.2631Z" fill="#CDCDCD"/>
<path d="M83.4624 11.8303V11.7444C83.5219 11.7014 83.5663 11.6298 83.5663 11.5582C83.5663 11.4723 83.5068 11.3863 83.4323 11.3576L83.4179 11.1285C83.4918 11.0999 83.5362 11.0283 83.5362 10.9566C83.5362 10.8707 83.4774 10.7991 83.3878 10.7705L83.3735 10.5413C83.4473 10.5269 83.5068 10.4697 83.5068 10.3837C83.5068 10.2978 83.4323 10.2262 83.3584 10.2262L83.329 9.89679L83.2989 10.2262C83.2251 10.2405 83.1656 10.2978 83.1656 10.3837C83.1656 10.4554 83.2101 10.5127 83.2846 10.5413L83.2696 10.7705C83.195 10.7991 83.1362 10.8707 83.1362 10.9566C83.1362 11.0283 83.1806 11.0999 83.2394 11.1285L83.2251 11.372C83.1505 11.415 83.0918 11.4865 83.0918 11.5725C83.0918 11.6584 83.1362 11.7157 83.195 11.7587V11.8446C83.195 11.8446 82.8989 12.8042 80.1698 14.2222C78.4049 15.1388 77.8557 16.614 77.693 17.5307C77.6034 18.0319 77.6184 18.3757 77.6184 18.3757H84.2631V18.0892V17.5163V15.282L86.6661 14.5802C84.4115 13.2769 83.4624 11.8303 83.4624 11.8303Z" fill="#CDCDCD"/>
</svg>
