<svg width="97" height="40" viewBox="0 0 97 40" fill="none" xmlns="http://www.w3.org/2000/svg">
<path d="M37.0254 19.1602C37.0686 19.1602 37.1117 19.2476 37.0254 19.1602V19.1602Z" fill="#CDCDCD"/>
<path d="M36.8325 18.9429C36.6514 18.7855 36.7721 18.8904 36.8325 18.9429V18.9429Z" fill="#CDCDCD"/>
<path d="M40.5089 14.2825C40.3792 13.6161 40.0434 13.007 39.5488 12.5407C38.8837 11.8242 38.1299 11.195 37.3057 10.6683C36.7209 10.2851 36.1099 9.93679 35.499 9.61457L37.6286 8.92657L40.378 8.05568H40.4653C40.4653 8.05568 40.4653 8.05568 40.5089 8.05568C40.5526 8.05568 40.5089 7.99472 40.5089 7.93376V7.83796C40.4215 7.67138 40.3098 7.51877 40.1773 7.3851C39.9823 7.14885 39.7528 6.94333 39.4965 6.77548C39.4388 6.73416 39.3736 6.70459 39.3044 6.68839L37.3755 6.01781L32.6798 4.42409L27.1025 2.48201L20.696 0.261251C20.452 0.157374 20.2012 0.0700855 19.9454 -1.52588e-05C19.8117 0.00912018 19.6812 0.0446421 19.5614 0.104491L0.664907 6.66226L0.507802 6.70581C0.368151 6.75806 0.926752 7.3851 0.944208 7.39381C1.15551 7.66616 1.43148 7.88166 1.7472 8.02085L3.67612 8.63918L5.26465 9.14429C4.87188 9.33588 4.48784 9.53619 4.09507 9.7452C3.34513 10.1352 2.62719 10.5837 1.94795 11.0864C1.43669 11.4527 1.01091 11.9251 0.69982 12.4711C0.590099 12.6811 0.530367 12.9136 0.525257 13.1504V15.5888L1.78211 15.9982C0.984393 17.0278 0.537847 18.2851 0.507802 19.5862C0.530672 19.6909 0.582005 19.7874 0.656179 19.8649C0.726005 19.9607 0.804558 20.0565 0.874383 20.1349L0.944208 20.2045C1.10875 20.3993 1.30318 20.5669 1.52027 20.7009C0.920607 22.0618 0.591571 23.5258 0.551441 25.0118C0.551441 25.3341 0.551441 25.665 0.551441 25.9959C0.574312 26.1006 0.625646 26.1971 0.69982 26.2746C0.769645 26.3704 0.848199 26.4662 0.918024 26.5446L0.987849 26.6143C0.695928 28.104 0.5353 29.6164 0.507802 31.1342C0.507802 31.5609 0.507802 32.005 0.507802 32.4057C0.530672 32.5104 0.582005 32.6068 0.656179 32.6843C0.726005 32.7801 0.804558 32.8759 0.874383 32.9543L0.944208 33.024C1.15247 33.2836 1.42251 33.4872 1.72974 33.6162L3.65866 34.2345L8.36314 35.776L18.7671 39.1202L20.3469 39.634C20.59 39.7333 20.8411 39.812 21.0975 39.8691C21.2312 39.867 21.3626 39.8342 21.4816 39.7733L22.686 39.3902L27.0501 37.9793L37.6199 34.5742L40.3693 33.7033H40.5002V33.6423C40.5557 31.569 40.3652 29.4964 39.9329 27.4677L40.3605 27.3284H40.4915V27.2674C40.5411 25.2106 40.0634 23.1751 39.1037 21.3541L40.3605 20.9013H40.4915V20.8403C40.419 19.1374 39.7234 17.5199 38.5364 16.2943L40.5002 15.6585L40.5089 14.2825ZM35.0189 17.6006C35.3244 17.7922 35.6299 17.9925 35.8917 18.2015H35.9354L36.0139 18.2625L36.2147 18.4105L36.4416 18.5934L36.5202 18.6544H36.4678L36.5376 18.7066L36.8256 18.9679L36.974 19.1246C36.971 19.139 36.971 19.1539 36.974 19.1682L37.0438 19.2466C37.0962 19.3075 37.1486 19.3772 37.201 19.4295C37.0089 19.2291 37.201 19.473 37.2795 19.534C37.3221 19.5795 37.3601 19.629 37.393 19.682V19.7343L37.4977 19.8823L37.5937 20.0478L35.4204 20.7532C34.1972 19.899 32.9104 19.1391 31.5713 18.4802L34.7483 17.4177L35.0189 17.6006ZM36.878 22.5298C36.9391 22.5908 37.1224 22.8433 36.9304 22.5821C37.0177 22.704 37.1137 22.8085 37.201 22.9217L37.2533 22.9914C37.2533 23.0698 37.3493 23.1394 37.4017 23.2178L37.585 23.5052C37.6635 23.6445 37.7334 23.7839 37.8032 23.9319C38.1221 24.5731 38.368 25.2479 38.5364 25.9437C38.5364 26.0046 38.5364 26.0656 38.5364 26.1266L38.0389 26.2833L35.4204 27.1542L27.8618 29.6101L21.307 31.7177C20.8444 31.8657 20.3644 31.9963 19.9105 32.1705H19.8319L19.2908 31.9963L13.6 30.1065L2.63747 26.5881C2.72475 26.3269 2.81203 26.0656 2.91677 25.8043C3.51335 24.342 4.48943 23.0644 5.7447 22.1031L8.36314 22.974L13.9404 24.768L18.7671 26.3269L20.3469 26.832C20.5898 26.9341 20.8409 27.0157 21.0975 27.0758C21.2206 27.072 21.342 27.0455 21.4554 26.9975L22.6599 26.6056L27.0239 25.1947L32.5925 23.4094L36.4416 22.164L36.5289 22.2511C36.5987 22.3121 36.8344 22.5472 36.5725 22.2511L36.8606 22.5385L36.7733 22.4514L36.878 22.5298ZM12.413 11.4347L13.8531 11.8963C13.0676 12.4362 12.2559 12.9414 11.4267 13.4029C10.5976 13.8645 9.99531 14.1519 9.27087 14.5177L7.34195 13.9342L8.06639 13.551C9.48907 12.8194 10.9729 12.2011 12.4305 11.487L12.413 11.4347ZM30.7421 18.8111L32.8631 19.9346C33.1947 20.1 33.5264 20.2742 33.8493 20.4571L34.3032 20.7097L34.5214 20.8316L34.6262 20.8925H34.6698L34.2683 21.0232L26.8406 23.5139L20.8619 25.4299L20.1374 25.665L19.9192 25.7434H19.8668C19.8099 25.722 19.7516 25.7045 19.6923 25.6911L19.0028 25.4647L13.1462 23.5836L6.61751 21.4586C8.03147 20.5268 9.57635 19.7865 11.0776 18.994L20.4953 22.0247L30.6548 18.7589L30.7421 18.8111ZM16.0003 12.593L16.7684 12.8368C15.6461 13.9208 14.4246 14.8975 13.12 15.7543L11.6362 15.2753L12.1424 15.0141C13.4841 14.2991 14.7733 13.4901 16.0003 12.593ZM21.9878 9.06591C22.8257 9.88454 23.6985 10.6596 24.6062 11.3912L22.5377 12.0618L22.4067 11.8876L22.1973 11.635L22.11 11.5044C21.9965 11.3476 21.8831 11.1996 21.7783 11.0341L21.5339 10.6509C21.2492 10.0437 21.1088 9.37907 21.1237 8.70885V8.20373C21.4554 8.49983 21.691 8.78722 21.9878 9.06591ZM20.4865 11.2605C20.6262 11.0515 20.7658 10.8338 20.888 10.6161C21.2721 11.156 21.691 11.6873 22.1274 12.1924L20.6524 12.6627C20.408 12.741 20.1374 12.802 19.893 12.9065C19.8065 12.8672 19.7157 12.8379 19.6225 12.8194L19.3868 12.741C19.7831 12.2702 20.1503 11.7758 20.4865 11.2605ZM18.7409 13.4726L20.3207 13.9777C20.5636 14.0798 20.8147 14.1614 21.0713 14.2216C21.2045 14.2156 21.3351 14.183 21.4554 14.1258L22.6599 13.7426L23.3668 13.5074C23.7945 13.9342 24.2397 14.3783 24.6848 14.7354C25.2783 15.2492 25.898 15.7282 26.5352 16.1898L20.504 18.1318L15.2671 16.451C16.5134 15.5759 17.6684 14.5781 18.7147 13.4726H18.7409ZM26.2471 15.406L26.0115 15.2318L25.898 15.1447L25.418 14.7789L24.9641 14.4131L24.8244 14.2912L24.6499 14.1519L24.2484 13.7948L24.0738 13.6294L23.9953 13.5597L23.8643 13.429L26.282 12.6453C26.5002 12.8107 26.7272 12.9675 26.9541 13.1242C28.0032 13.8374 29.0932 14.4887 30.2184 15.075L27.2072 16.0504C26.8639 15.8298 26.5352 15.615 26.2209 15.406H26.2471ZM25.095 11.2344L24.7197 10.9557L24.004 10.3809L23.8469 10.2503L23.7334 10.1545L23.4628 9.91938C23.2621 9.75391 23.0701 9.57973 22.8781 9.40555L22.6162 9.16171L22.494 9.04849C22.206 8.76981 21.918 8.49113 21.6212 8.17761C21.5613 8.13695 21.5057 8.09026 21.4554 8.03826V7.9773L21.1935 7.68991V5.78267C23.3568 7.42049 25.6029 8.94657 27.9229 10.3548L27.1461 10.5987L25.095 11.2344ZM17.9641 11.5566C17.7983 11.7482 17.6324 11.9398 17.4579 12.1227L16.8731 11.9311C17.3706 11.5392 17.8506 11.1386 18.322 10.7293C18.6449 10.4419 18.9678 10.1545 19.2733 9.85842C18.8756 10.4531 18.4382 11.0205 17.9641 11.5566ZM31.0563 14.7441L29.3893 13.9342C28.5164 13.4726 27.6436 12.9675 26.7708 12.4188L27.0327 12.3404L29.8082 11.4696C30.5763 11.8527 31.3618 12.2098 32.1474 12.5756C32.9329 12.9414 33.5875 13.2549 34.2858 13.6206L34.4167 13.6816L31.0563 14.7441ZM28.6386 10.1023C26.9896 9.22216 25.3979 8.23902 23.8731 7.15867C23.0003 6.55776 22.1274 5.93943 21.2546 5.31239L21.1412 5.2253V3.53578C23.297 4.62439 25.4529 5.72171 27.5913 6.84515C28.0277 7.07158 28.4641 7.31543 28.8918 7.53315C29.3194 7.75087 29.7646 7.90763 30.1486 8.08181L32.2521 8.95269L28.6386 10.1023ZM19.8494 4.40667C18.8369 5.13821 17.8768 5.85234 16.8818 6.54905C15.1626 7.78961 13.3668 8.9211 11.5053 9.9368L11.1823 10.1023L8.94793 9.37943L9.30578 9.23138C10.615 8.67401 11.9679 8.19502 13.2509 7.57669C13.7921 7.31543 14.3157 7.01062 14.8482 6.70581L17.3444 5.4169L19.7097 4.22378L19.8319 4.17153L19.8494 4.40667ZM17.5975 8.24728C18.3045 7.75958 19.0115 7.26318 19.7097 6.75806C19.0451 7.51826 18.337 8.23938 17.5888 8.91786C16.6904 9.74763 15.7462 10.5269 14.7609 11.2518L14.019 11.0167L13.5215 10.8512C14.9267 10.0674 16.2708 9.153 17.5975 8.24728ZM8.72972 18.2363C7.55422 18.8255 6.40936 19.4737 5.29956 20.1784C5.01153 20.3613 4.73223 20.5616 4.42674 20.7619L3.71976 20.5355C4.62737 19.3972 5.73678 18.4348 6.99282 17.6964L8.72972 18.2363ZM3.67612 21.4499C3.26767 21.8415 2.89658 22.27 2.56764 22.7301C2.75183 22.2377 2.97966 21.7626 3.24844 21.3106L3.67612 21.4499ZM36.2409 10.7554C36.59 10.9296 36.9304 11.1125 37.2621 11.3041L37.3842 11.3825H37.4628L37.6286 11.487L38.1 11.7831L38.4927 12.053H38.5451C38.607 12.0946 38.6654 12.1413 38.7197 12.1924L35.1673 13.4116C34.6087 13.0546 34.0326 12.7149 33.4217 12.4101C32.5489 11.9485 31.676 11.5392 30.8032 11.1212L32.6187 10.5377L34.5476 9.92809C35.0887 10.1894 35.6735 10.4506 36.2409 10.7554ZM22.6249 1.84626L37.5501 7.02804L37.8556 7.14125L37.2533 7.33285L33.3344 8.58692L32.2172 8.09923C30.8381 7.50702 29.4067 6.9932 28.0451 6.35745C27.5214 6.12231 27.0327 5.82621 26.5264 5.56495C25.706 5.1295 24.8768 4.69406 24.0476 4.27604L21.1237 2.78682V1.31502C21.208 1.36164 21.2994 1.39401 21.3943 1.41082L22.6249 1.84626ZM3.423 7.61153L3.16989 7.53315L3.71976 7.34155L18.7758 2.13366L19.8494 1.74176V2.19462C19.701 2.25558 19.5614 2.34267 19.4217 2.41234L17.4579 3.42257C15.8432 4.2412 14.2197 5.05983 12.6225 5.92201C11.5196 6.47796 10.3894 6.97791 9.23596 7.41993C8.36314 7.83796 7.39432 8.17761 6.48659 8.58692L3.423 7.61153ZM4.29582 11.6786C5.39298 11.0277 6.52988 10.446 7.6998 9.9368L8.32823 10.1458L10.0215 10.6858C8.31803 11.4231 6.65709 12.2546 5.04644 13.1765L3.12625 12.532C3.50218 12.2251 3.8956 11.9401 4.30455 11.6786H4.29582ZM4.87188 16.991C3.96064 17.6159 3.15361 18.38 2.48036 19.2553C2.3058 19.4904 2.15742 19.7256 2.00904 19.9607H1.94795C2.1738 18.6942 2.783 17.5271 3.69358 16.6165L4.87188 16.991ZM39.1735 31.8744V32.1008C39.1735 32.1008 39.1735 32.2924 39.1735 32.3273H39.1299C39.0686 32.3554 39.0041 32.3759 38.9379 32.3882L38.1436 32.6495L23.1923 37.4655L19.9454 38.5454H19.8407C19.6574 38.467 19.4566 38.4235 19.2733 38.3625L18.1823 38.0142L14.9267 36.9691L6.61751 34.2606L1.85194 32.7453C1.83331 30.9652 2.01779 29.1888 2.40181 27.4503L3.7023 27.8683L8.36314 29.3576L13.9404 31.1516L18.7671 32.7105L20.3469 33.2156C20.5898 33.3177 20.8409 33.3993 21.0975 33.4594C21.2307 33.4535 21.3612 33.4209 21.4816 33.3636L22.686 32.9804L27.0501 31.5696L37.6199 28.1644L38.9117 27.7551C39.0907 29.1209 39.1781 30.497 39.1735 31.8744ZM38.9291 23.1656C39.02 23.6494 39.0841 24.1378 39.1211 24.6286C39.1211 24.7767 39.1211 24.9335 39.1211 25.0902C38.5581 23.9162 37.7863 22.854 36.8431 21.955L37.585 21.7199L38.4578 21.4499C38.6584 22.0196 38.8102 22.6052 38.9117 23.2004L38.9291 23.1656ZM38.1523 16.3639L38.2571 16.5033L38.388 16.7036L38.4404 16.7907C38.4417 16.8168 38.4417 16.8429 38.4404 16.869C38.4927 16.9561 38.5364 17.0432 38.58 17.1303C38.8948 17.7729 39.0788 18.4715 39.1211 19.1856C39.1211 19.2901 39.1735 19.4556 39.1211 19.5078C39.0691 19.5156 39.0161 19.5156 38.964 19.5078L38.0912 19.7778C37.2888 18.7856 36.3551 17.9067 35.3157 17.1651L38.0563 16.2943L38.1523 16.3639Z" fill="#CDCDCD"/>
<path d="M53.2061 24.8139C52.6443 24.8109 52.0881 24.9238 51.5761 25.1449C51.0636 25.366 50.6073 25.6902 50.2375 26.0954L50.3724 26.2785C50.7264 26.1239 51.1083 26.0361 51.497 26.02C53.0153 26.02 53.9708 27.2046 53.9708 29.1107V33.4183H56.3213V27.84C56.3472 27.4398 56.2843 27.039 56.1376 26.6636C55.991 26.2882 55.7631 25.9466 55.4693 25.6611C55.175 25.3756 54.8218 25.1526 54.4321 25.0066C54.0418 24.8606 53.6242 24.795 53.2061 24.8139Z" fill="#CDCDCD"/>
<path d="M49.7294 24.8107H47.6996V33.4183H49.7294V24.8107Z" fill="#CDCDCD"/>
<path d="M62.4524 32.0968C61.2041 32.0968 60.4921 31.0142 60.4921 29.2278V24.8107H58.3669V30.3429C58.3334 30.739 58.3796 31.138 58.5034 31.5139C58.6267 31.8898 58.8246 32.2341 59.0839 32.5243C59.3427 32.8145 59.6573 33.044 60.0065 33.198C60.3561 33.3519 60.7326 33.4267 61.1112 33.4176C61.6613 33.406 62.2012 33.2636 62.6909 33.0011C63.1806 32.7385 63.6073 32.3626 63.9382 31.9019L63.7936 31.7287C63.3851 31.9731 62.9228 32.1 62.4524 32.0968Z" fill="#CDCDCD"/>
<path d="M66.4753 24.8107H64.4455V33.4183H66.4753V24.8107Z" fill="#CDCDCD"/>
<path d="M72.6318 28.046C71.3987 27.6668 70.3356 27.3088 70.3356 26.5293C70.3316 26.3878 70.361 26.2472 70.4204 26.1185V26.0132H70.5797C70.7223 25.9782 70.869 25.9605 71.0156 25.9606C71.4297 25.9606 71.8387 26.0458 72.2178 26.2108C72.5968 26.3758 72.9368 26.617 73.2164 26.919L73.2804 27.0033L75.0981 25.7393L75.0026 25.6446C74.7251 25.3685 74.3927 25.1521 74.0268 25.0089C73.6609 24.8657 73.2692 24.7988 72.8764 24.8125C72.4177 24.8044 71.963 24.8943 71.5429 25.076C71.1227 25.2578 70.7472 25.5271 70.4417 25.8658L70.325 26.0027H70.2184C69.818 26.0892 69.4557 26.2987 69.1827 26.6014C68.9097 26.904 68.7402 27.2842 68.6981 27.6879C68.6981 29.0466 70.1971 29.5311 71.6428 30.0051C72.7064 30.3527 73.7695 30.6898 73.8543 31.3744C73.872 31.6225 73.8005 31.8687 73.6523 32.0696L73.5676 32.1854H73.3971C73.2311 32.2026 73.0637 32.2026 72.8977 32.1854C71.9321 32.1552 71.0151 31.7593 70.3356 31.0795V30.9952L68.5068 32.2697L68.6027 32.3645C68.9305 32.6977 69.3222 32.9626 69.7546 33.1435C70.1874 33.3244 70.6523 33.4177 71.1222 33.4178C71.587 33.4264 72.0483 33.337 72.475 33.1554C72.9023 32.9738 73.2854 32.7042 73.599 32.3645L73.7269 32.2381H73.8756C74.0563 32.2381 75.6831 31.722 75.6085 30.2369C75.5025 28.9624 74.0456 28.4989 72.6318 28.046Z" fill="#CDCDCD"/>
<path d="M81.6117 32.0965C80.2497 32.0965 79.4621 31.014 79.4621 29.2277V24.8107H77.1436V30.3428C77.1065 30.7397 77.1578 31.1397 77.2933 31.5163C77.4287 31.893 77.6454 32.2378 77.9291 32.5282C78.2133 32.8185 78.5573 33.0479 78.9399 33.2011C79.3226 33.3544 79.7346 33.428 80.1487 33.4173C80.747 33.4057 81.3346 33.2632 81.8669 33.0006C82.3992 32.738 82.8625 32.3622 83.2213 31.9017L83.0635 31.7284C82.6215 31.9715 82.1212 32.0984 81.6117 32.0965Z" fill="#CDCDCD"/>
<path d="M85.7589 24.8107H83.7291V33.4183H85.7589V24.8107Z" fill="#CDCDCD"/>
<path d="M90.3258 20.7603H87.7886V33.4185H90.3258V20.7603Z" fill="#CDCDCD"/>
<path d="M95.9531 24.8107H93.9177L90.3259 29.0756L93.907 33.4183H96.9228L92.681 28.3982L95.9531 24.8107Z" fill="#CDCDCD"/>
<path d="M70.5349 19.2401V10.6326H68.3087V17.6943H49.472L47.6996 18.9733V19.2401H70.5349Z" fill="#CDCDCD"/>
<path d="M74.464 15.0543C74.464 16.8859 73.7469 17.9372 72.5077 17.9372C72.0424 17.9319 71.5867 17.7974 71.1863 17.547L71.0427 17.7204C71.3695 18.1814 71.7907 18.5576 72.2753 18.8205C72.7599 19.0834 73.2948 19.2261 73.8393 19.2377C74.2184 19.2545 74.5969 19.1857 74.9491 19.0357C75.3013 18.8857 75.6194 18.6581 75.8823 18.3679C76.1446 18.0777 76.3461 17.7316 76.4724 17.3528C76.5988 16.9739 76.6475 16.5709 76.615 16.1706V10.6326H74.464V15.0543Z" fill="#CDCDCD"/>
<path d="M77.6397 6.87088C77.5616 6.83888 77.4778 6.81837 77.3921 6.81027H77.3094V6.74971C77.3566 6.62586 77.3804 6.49629 77.3799 6.36596C77.3799 5.35619 76.8963 5.06338 76.4832 5.06338C76.1016 5.08039 75.7408 5.21781 75.4704 5.449C75.2004 5.68024 75.0395 5.98895 75.0197 6.31548C75.0197 6.82039 75.4095 7.10313 76.3178 7.23437H76.4716L76.3533 7.31518C75.546 7.76065 74.6782 8.12009 73.7689 8.38556L73.5801 8.45624H73.7805C74.0586 8.52688 74.3428 8.57751 74.6305 8.60769C75.5287 8.37366 76.3411 7.94596 76.9907 7.36566C77.0556 7.3812 77.1186 7.40151 77.1795 7.42627L77.628 6.89108L77.6397 6.87088ZM76.9907 6.52753C77.0013 6.59118 77.0013 6.65579 76.9907 6.71943C75.8103 6.51746 75.5389 6.18424 75.5389 5.95199C75.5389 5.71974 75.8931 5.49756 76.2473 5.49756C76.601 5.49756 76.9907 5.95199 76.9907 6.52753Z" fill="#CDCDCD"/>
<path d="M93.3704 12.6521L91.5994 10.6326L89.8183 12.6521L91.5994 14.6832L93.3704 12.6521Z" fill="#CDCDCD"/>
<path d="M93.8779 6.90763C93.7997 6.87498 93.716 6.85412 93.6302 6.84581H93.5592V6.78404C93.5973 6.65609 93.6171 6.5246 93.6181 6.3925C93.6181 5.36217 93.1345 5.06338 92.7214 5.06338C92.3408 5.08095 91.9815 5.22151 91.7131 5.45766C91.4452 5.69381 91.2868 6.0087 91.2696 6.341C91.2696 6.85614 91.6593 7.14465 92.5682 7.27857H92.7214L92.5915 7.361C91.7841 7.81553 90.9164 8.18227 90.007 8.45315L89.8183 8.52526H90.0187C90.2953 8.57133 90.5754 8.59888 90.857 8.60769C91.7222 8.38252 92.5093 7.97163 93.1461 7.4125L93.3232 7.47432L93.7718 6.92824L93.8779 6.90763ZM93.2522 6.55736C93.2629 6.62227 93.2629 6.68819 93.2522 6.7531C92.0724 6.54703 91.8009 6.20703 91.8009 5.97007C91.8009 5.7331 92.1668 5.50642 92.521 5.50642C92.8746 5.50642 93.2289 5.97007 93.2522 6.55736Z" fill="#CDCDCD"/>
<path d="M94.7101 10.6326V17.5157H82.2182C82.3826 17.0871 82.4633 16.6308 82.4557 16.1716V10.6326H80.2316V15.0551C80.2316 16.887 79.4866 17.9385 78.1804 17.9385C77.6867 17.9346 77.2021 17.8 76.7768 17.5482L76.6256 17.7217C76.9722 18.183 77.4183 18.5593 77.9308 18.8222C78.4433 19.085 79.0086 19.2276 79.5841 19.2392C80.0824 19.2522 80.5746 19.1302 81.01 18.8861C81.4449 18.6419 81.8062 18.2846 82.0564 17.8517L83.5138 19.0224H96.9236V10.6326H94.7101Z" fill="#CDCDCD"/>
<path d="M58.6357 12.1529C59.3035 12.1181 59.9687 12.254 60.5686 12.5476C61.1679 12.8412 61.6814 13.2825 62.0599 13.8295C62.3512 14.3044 62.5263 14.8408 62.5699 15.3952C62.6136 15.9496 62.5248 16.5064 62.3106 17.0205V17.1286L62.4415 17.2151H62.5177C63.2144 16.8344 63.7695 16.2428 64.1035 15.5266C64.4368 14.8105 64.5307 14.0075 64.3714 13.2346C64.1846 12.4495 63.7218 11.7561 63.0667 11.2784C62.4111 10.8008 61.6058 10.5701 60.7949 10.6277H53.1618L57.0326 6.58224H54.9064L51.2533 10.7359L51.5258 12.1529H58.6357Z" fill="#CDCDCD"/>
</svg>
