<svg width="99" height="24" viewBox="0 0 99 24" fill="none" xmlns="http://www.w3.org/2000/svg">
<path d="M36.7506 5.36646H31.3117C31.1316 5.36634 30.9574 5.43054 30.8205 5.54748C30.6836 5.66442 30.5929 5.82642 30.5649 6.00428L28.3651 19.9512C28.355 20.016 28.359 20.0821 28.3769 20.1451C28.3948 20.2081 28.4262 20.2665 28.4688 20.3162C28.5114 20.366 28.5643 20.4059 28.6239 20.4332C28.6834 20.4605 28.7482 20.4746 28.8137 20.4745H31.4103C31.5904 20.4746 31.7647 20.4103 31.9017 20.2932C32.0386 20.1761 32.1292 20.0139 32.157 19.8359L32.7503 16.0742C32.7782 15.8963 32.8687 15.7343 33.0054 15.6172C33.1422 15.5001 33.3163 15.4357 33.4963 15.4356H35.2181C38.8009 15.4356 40.8686 13.7019 41.4086 10.2662C41.652 8.76313 41.419 7.58213 40.7151 6.75503C39.9421 5.84681 38.571 5.36646 36.7506 5.36646ZM37.3781 10.4603C37.0807 12.4119 35.5895 12.4119 34.1476 12.4119H33.3269L33.9027 8.7671C33.9196 8.66047 33.9739 8.56335 34.056 8.49323C34.1381 8.4231 34.2425 8.38457 34.3504 8.38457H34.7266C35.7088 8.38457 36.6353 8.38457 37.1141 8.94445C37.3996 9.27847 37.4871 9.77473 37.3781 10.4603ZM53.0087 10.3974H50.4041C50.2962 10.3974 50.1917 10.436 50.1097 10.5061C50.0276 10.5762 49.9732 10.6733 49.9564 10.78L49.8411 11.5085L49.6589 11.2444C49.0951 10.4261 47.8377 10.1525 46.5828 10.1525C43.7046 10.1525 41.2464 12.3324 40.7676 15.3903C40.5187 16.9156 40.8726 18.3742 41.7379 19.3913C42.5316 20.3266 43.6672 20.7163 45.0184 20.7163C47.3375 20.7163 48.6235 19.2251 48.6235 19.2251L48.5074 19.9488C48.497 20.0136 48.5008 20.0797 48.5185 20.1428C48.5362 20.2059 48.5674 20.2644 48.6098 20.3143C48.6523 20.3642 48.7051 20.4043 48.7646 20.4318C48.8241 20.4593 48.8888 20.4736 48.9543 20.4737H51.3004C51.4806 20.4738 51.6549 20.4095 51.7918 20.2924C51.9287 20.1753 52.0193 20.0131 52.0472 19.8351L53.4548 10.9207C53.4652 10.8562 53.4614 10.7901 53.4438 10.7272C53.4261 10.6642 53.395 10.6059 53.3526 10.5561C53.3101 10.5063 53.2574 10.4664 53.1981 10.439C53.1387 10.4116 53.0741 10.3974 53.0087 10.3974ZM49.3782 15.4666C49.1269 16.9546 47.9459 17.9535 46.4396 17.9535C45.6833 17.9535 45.0789 17.7109 44.6908 17.2512C44.3059 16.7947 44.1595 16.145 44.282 15.4213C44.5166 13.946 45.7175 12.9145 47.2007 12.9145C47.9403 12.9145 48.5416 13.1603 48.9376 13.6239C49.3345 14.0924 49.4919 14.7461 49.3782 15.4666ZM66.8801 10.3974H64.2628C64.1394 10.3976 64.0178 10.4279 63.9088 10.4857C63.7997 10.5435 63.7064 10.6271 63.6369 10.7291L60.0271 16.0464L58.497 10.9366C58.45 10.7808 58.3541 10.6442 58.2235 10.5471C58.0928 10.45 57.9344 10.3975 57.7717 10.3974H55.1997C55.1275 10.3973 55.0563 10.4143 54.992 10.4472C54.9278 10.4801 54.8723 10.5278 54.8302 10.5865C54.7881 10.6451 54.7606 10.713 54.7501 10.7844C54.7395 10.8558 54.7461 10.9288 54.7694 10.9971L57.6524 19.4574L54.942 23.2835C54.8939 23.3513 54.8653 23.4311 54.8594 23.5141C54.8536 23.5971 54.8707 23.6801 54.9089 23.754C54.9471 23.8279 55.0049 23.8899 55.076 23.9332C55.147 23.9764 55.2286 23.9993 55.3118 23.9992H57.9259C58.048 23.9994 58.1683 23.97 58.2765 23.9135C58.3846 23.857 58.4775 23.775 58.5471 23.6748L67.2523 11.1092C67.2995 11.0412 67.3271 10.9616 67.3323 10.8791C67.3375 10.7965 67.3199 10.714 67.2816 10.6407C67.2432 10.5674 67.1856 10.5059 67.1148 10.4631C67.044 10.4202 66.9628 10.3975 66.8801 10.3974Z" fill="#253B80"/>
<path d="M75.5449 5.36725H70.1051C69.9252 5.36733 69.7512 5.43161 69.6145 5.54853C69.4777 5.66546 69.3872 5.82735 69.3591 6.00507L67.1594 19.952C67.1491 20.0166 67.153 20.0827 67.1708 20.1456C67.1886 20.2086 67.2198 20.267 67.2622 20.3167C67.3047 20.3664 67.3575 20.4064 67.4169 20.4338C67.4763 20.4611 67.5409 20.4753 67.6063 20.4753H70.3978C70.5237 20.4751 70.6455 20.43 70.7411 20.3481C70.8367 20.2662 70.9 20.1528 70.9195 20.0284L71.5438 16.075C71.5717 15.8971 71.6621 15.7351 71.7989 15.618C71.9357 15.5009 72.1097 15.4365 72.2898 15.4364H74.0108C77.5943 15.4364 79.6613 13.7027 80.2021 10.267C80.4462 8.76392 80.2116 7.58292 79.5078 6.75582C78.7356 5.8476 77.3653 5.36725 75.5449 5.36725ZM76.1724 10.4611C75.8757 12.4127 74.3846 12.4127 72.9419 12.4127H72.122L72.6986 8.7679C72.7151 8.66126 72.7692 8.56407 72.8512 8.4939C72.9332 8.42373 73.0376 8.38523 73.1455 8.38537H73.5217C74.5031 8.38537 75.4304 8.38537 75.9091 8.94525C76.1946 9.27927 76.2813 9.77553 76.1724 10.4611ZM91.8022 10.3982H89.1992C89.0912 10.3979 88.9867 10.4364 88.9047 10.5066C88.8227 10.5768 88.7686 10.6741 88.7522 10.7808L88.6369 11.5093L88.454 11.2452C87.8901 10.4269 86.6336 10.1533 85.3786 10.1533C82.5005 10.1533 80.043 12.3332 79.5643 15.3911C79.3161 16.9164 79.6685 18.375 80.5337 19.3921C81.329 20.3274 82.4631 20.7171 83.8143 20.7171C86.1333 20.7171 87.4193 19.2259 87.4193 19.2259L87.3032 19.9496C87.2928 20.0145 87.2967 20.0808 87.3145 20.144C87.3323 20.2072 87.3636 20.2658 87.4062 20.3157C87.4489 20.3656 87.5019 20.4057 87.5615 20.4331C87.6212 20.4605 87.6861 20.4747 87.7518 20.4745H90.0971C90.2771 20.4744 90.4512 20.41 90.588 20.2929C90.7247 20.1759 90.8152 20.0138 90.843 19.8359L92.2515 10.9215C92.2615 10.8568 92.2573 10.7906 92.2393 10.7276C92.2213 10.6646 92.1899 10.6062 92.1472 10.5565C92.1045 10.5068 92.0516 10.4669 91.992 10.4396C91.9325 10.4123 91.8677 10.3982 91.8022 10.3982ZM88.1717 15.4674C87.922 16.9554 86.7394 17.9543 85.2331 17.9543C84.4784 17.9543 83.8723 17.7117 83.4842 17.252C83.0993 16.7955 82.9546 16.1458 83.0755 15.4221C83.3117 13.9468 84.511 12.9153 85.9942 12.9153C86.7338 12.9153 87.335 13.1611 87.7311 13.6247C88.1295 14.0931 88.287 14.7469 88.1717 15.4674ZM94.8728 5.74978L92.6404 19.952C92.6302 20.0166 92.6341 20.0827 92.6518 20.1456C92.6696 20.2086 92.7008 20.267 92.7432 20.3167C92.7857 20.3664 92.8385 20.4064 92.8979 20.4338C92.9573 20.4611 93.0219 20.4753 93.0873 20.4753H95.3316C95.7046 20.4753 96.0212 20.2049 96.0784 19.8367L98.2798 5.89055C98.29 5.8259 98.2861 5.75981 98.2683 5.69682C98.2506 5.63382 98.2194 5.57542 98.1769 5.52562C98.1345 5.47582 98.0817 5.43581 98.0223 5.40833C97.9629 5.38086 97.8983 5.36657 97.8328 5.36646H95.3197C95.2118 5.36684 95.1076 5.40562 95.0257 5.47586C94.9438 5.5461 94.8896 5.64321 94.8728 5.74978Z" fill="#179BD7"/>
<path d="M5.77942 23.1871L6.19536 20.5452L5.26885 20.5237H0.844666L3.91925 1.02881C3.9284 0.969249 3.95865 0.914955 4.00449 0.875832C4.05033 0.836708 4.1087 0.81536 4.16897 0.815677H11.6288C14.1053 0.815677 15.8144 1.33102 16.7067 2.3482C17.125 2.82537 17.3914 3.32401 17.5203 3.87276C17.6555 4.44855 17.6578 5.13647 17.5258 5.9755L17.5163 6.03674V6.57435L17.9346 6.81135C18.2539 6.97314 18.541 7.192 18.7816 7.45712C19.1395 7.8651 19.3709 8.38363 19.4687 8.99839C19.5697 9.63064 19.5363 10.383 19.3709 11.2347C19.18 12.2145 18.8714 13.0679 18.4547 13.7661C18.087 14.3917 17.5927 14.9334 17.0033 15.3567C16.4498 15.7496 15.7921 16.0478 15.0485 16.2387C14.328 16.4264 13.5064 16.521 12.6054 16.521H12.0248C11.6097 16.521 11.2065 16.6705 10.8899 16.9385C10.5739 17.2094 10.3642 17.5837 10.2982 17.9947L10.2545 18.2325L9.51966 22.8889L9.48626 23.0599C9.47751 23.1139 9.4624 23.141 9.44013 23.1593C9.41856 23.1769 9.39165 23.1867 9.36378 23.1871H5.77942Z" fill="#253B80"/>
<path d="M18.329 6.09778C18.3067 6.24013 18.2813 6.38567 18.2526 6.53519C17.2689 11.5861 13.9032 13.3309 9.60468 13.3309H7.41605C6.89036 13.3309 6.44739 13.7127 6.36547 14.2312L5.24491 21.3379L4.92759 23.3523C4.91495 23.4322 4.91978 23.5139 4.94174 23.5918C4.9637 23.6697 5.00227 23.7418 5.0548 23.8034C5.10733 23.8649 5.17257 23.9143 5.24603 23.9482C5.31949 23.9821 5.39942 23.9997 5.48032 23.9997H9.36211C9.82179 23.9997 10.2123 23.6657 10.2846 23.2124L10.3228 23.0151L11.0537 18.377L11.1006 18.1225C11.1722 17.6676 11.5635 17.3336 12.0231 17.3336H12.6037C16.3646 17.3336 19.3088 15.8066 20.1693 11.388C20.5287 9.54217 20.3426 8.0009 19.3915 6.91692C19.09 6.5816 18.73 6.30402 18.329 6.09778Z" fill="#179BD7"/>
<path d="M17.3012 5.68603C16.9871 5.59516 16.6676 5.52424 16.3445 5.47369C15.7061 5.37559 15.061 5.32851 14.4151 5.33293H8.56818C8.34566 5.33275 8.13042 5.41219 7.96137 5.55689C7.79232 5.70158 7.68061 5.90197 7.64644 6.12185L6.40261 14L6.36682 14.2298C6.40557 13.979 6.5328 13.7504 6.7255 13.5852C6.91819 13.4201 7.16363 13.3294 7.4174 13.3295H9.60603C13.9046 13.3295 17.2702 11.5839 18.254 6.53381C18.2834 6.3843 18.3081 6.23876 18.3303 6.0964C18.0707 5.96027 17.8002 5.84614 17.5215 5.75522C17.4485 5.73098 17.375 5.70792 17.3012 5.68603Z" fill="#222D65"/>
<path d="M7.64582 6.12292C7.6797 5.90298 7.79136 5.70249 7.96049 5.55787C8.12963 5.41325 8.34503 5.3341 8.56756 5.33479H14.4145C15.1072 5.33479 15.7538 5.38012 16.3439 5.47555C16.7432 5.53831 17.137 5.63218 17.5217 5.75629C17.812 5.85252 18.0816 5.96625 18.3305 6.09747C18.6232 4.23093 18.3281 2.96006 17.3189 1.80928C16.2063 0.542386 14.1982 0 11.6286 0H4.16882C3.64394 0 3.19619 0.381738 3.11507 0.901061L0.00788107 20.5964C-0.00659169 20.6878 -0.0010853 20.7813 0.0240215 20.8704C0.0491282 20.9595 0.0932395 21.0421 0.153321 21.1126C0.213403 21.183 0.288028 21.2396 0.372065 21.2784C0.456102 21.3173 0.547555 21.3374 0.640135 21.3376H5.24564L6.40199 14.001L7.64582 6.12292Z" fill="#253B80"/>
</svg>
